<svg xmlns="http://www.w3.org/2000/svg" xmlns:xlink="http://www.w3.org/1999/xlink" width="247.383" height="200.625" viewBox="0 0 247.383 200.625"><defs><style>.a{fill:url(#a);}.b{fill:#fff;}.c{filter:url(#ac);}.d{filter:url(#aa);}.e{filter:url(#y);}.f{filter:url(#w);}.g{filter:url(#t);}.h{filter:url(#r);}.i{filter:url(#o);}.j{filter:url(#l);}.k{filter:url(#j);}.l{filter:url(#g);}.m{filter:url(#e);}.n{filter:url(#b);}</style><linearGradient id="a" x1="0.5" x2="0.5" y2="1" gradientUnits="objectBoundingBox"><stop offset="0" stop-color="#d33"/><stop offset="1" stop-color="#b51616"/></linearGradient><filter id="b" x="131.276" y="112.873" width="111.858" height="87.752" filterUnits="userSpaceOnUse"><feOffset dy="3" input="SourceAlpha"/><feGaussianBlur stdDeviation="3" result="c"/><feFlood flood-opacity="0.161"/><feComposite operator="in" in2="c"/><feComposite in="SourceGraphic"/></filter><filter id="e" x="118.109" y="97.917" width="53.289" height="90.874" filterUnits="userSpaceOnUse"><feOffset dy="3" input="SourceAlpha"/><feGaussianBlur stdDeviation="3" result="f"/><feFlood flood-opacity="0.161"/><feComposite operator="in" in2="f"/><feComposite in="SourceGraphic"/></filter><filter id="g" x="117.796" y="128.932" width="116.562" height="70.76" filterUnits="userSpaceOnUse"><feOffset dy="3" input="SourceAlpha"/><feGaussianBlur stdDeviation="3" result="h"/><feFlood flood-opacity="0.161"/><feComposite operator="in" in2="h"/><feComposite in="SourceGraphic"/></filter><filter id="j" x="135.337" y="85.894" width="112.047" height="72.693" filterUnits="userSpaceOnUse"><feOffset dy="3" input="SourceAlpha"/><feGaussianBlur stdDeviation="3" result="k"/><feFlood flood-opacity="0.161"/><feComposite operator="in" in2="k"/><feComposite in="SourceGraphic"/></filter><filter id="l" x="198.724" y="97.023" width="48.565" height="91.899" filterUnits="userSpaceOnUse"><feOffset dy="3" input="SourceAlpha"/><feGaussianBlur stdDeviation="3" result="m"/><feFlood flood-opacity="0.161"/><feComposite operator="in" in2="m"/><feComposite in="SourceGraphic"/></filter><filter id="o" x="4.891" y="66.732" width="102.034" height="118.715" filterUnits="userSpaceOnUse"><feOffset dy="3" input="SourceAlpha"/><feGaussianBlur stdDeviation="3" result="p"/><feFlood flood-opacity="0.161"/><feComposite operator="in" in2="p"/><feComposite in="SourceGraphic"/></filter><filter id="r" x="0.247" y="49.596" width="92.073" height="66.065" filterUnits="userSpaceOnUse"><feOffset dy="3" input="SourceAlpha"/><feGaussianBlur stdDeviation="3" result="s"/><feFlood flood-opacity="0.161"/><feComposite operator="in" in2="s"/><feComposite in="SourceGraphic"/></filter><filter id="t" x="0" y="60.592" width="87.589" height="119.284" filterUnits="userSpaceOnUse"><feOffset dy="3" input="SourceAlpha"/><feGaussianBlur stdDeviation="3" result="u"/><feFlood flood-opacity="0.161"/><feComposite operator="in" in2="u"/><feComposite in="SourceGraphic"/></filter><filter id="w" x="43.689" y="54.636" width="88.363" height="115.595" filterUnits="userSpaceOnUse"><feOffset dy="3" input="SourceAlpha"/><feGaussianBlur stdDeviation="3" result="x"/><feFlood flood-opacity="0.161"/><feComposite operator="in" in2="x"/><feComposite in="SourceGraphic"/></filter><filter id="y" x="39.754" y="119.213" width="91.974" height="61.988" filterUnits="userSpaceOnUse"><feOffset dy="3" input="SourceAlpha"/><feGaussianBlur stdDeviation="3" result="z"/><feFlood flood-opacity="0.161"/><feComposite operator="in" in2="z"/><feComposite in="SourceGraphic"/></filter><filter id="aa" x="95.968" y="45" width="120.693" height="108.703" filterUnits="userSpaceOnUse"><feOffset dy="3" input="SourceAlpha"/><feGaussianBlur stdDeviation="3" result="ab"/><feFlood flood-opacity="0.161"/><feComposite operator="in" in2="ab"/><feComposite in="SourceGraphic"/></filter><filter id="ac" x="37.968" y="0" width="120.693" height="108.703" filterUnits="userSpaceOnUse"><feOffset dy="3" input="SourceAlpha"/><feGaussianBlur stdDeviation="3" result="ad"/><feFlood flood-opacity="0.161"/><feComposite operator="in" in2="ad"/><feComposite in="SourceGraphic"/></filter></defs><g transform="translate(-86.685 -107.149)"><g transform="matrix(0.951, -0.309, 0.309, 0.951, -3.907, 91.974)"><g class="n" transform="matrix(0.95, 0.31, -0.31, 0.95, 81.47, 42.43)"><path class="a" d="M11.245,13.358,86,0,80.032,45.15,0,57Z" transform="translate(149.19 118.87) rotate(9)"/></g><g class="m" transform="matrix(0.95, 0.31, -0.31, 0.95, 81.47, 42.43)"><path class="a" d="M72.463-26.567,86.339-.344,75.223,43.309,61.677,16.722Z" transform="translate(72.97 120.51) rotate(9)"/></g><g class="l" transform="matrix(0.95, 0.31, -0.31, 0.95, 81.47, 42.43)"><path class="b" d="M-13.648,30.215l80.06-11.8,13.62,26.73L0,57Z" transform="translate(149.19 118.87) rotate(9)"/></g><g class="k" transform="matrix(0.95, 0.31, -0.31, 0.95, 81.47, 42.43)"><path class="a" d="M-13.488,29.709,61.565,15.669,75.184,42.4,0,57Z" transform="translate(166.58 78.53) rotate(9)"/></g><g class="j" transform="matrix(0.95, 0.31, -0.31, 0.95, 81.47, 42.43)"><path class="b" d="M72.463-26.567,86,0,80.032,45.15,66.413,18.42Z" transform="translate(149.19 118.87) rotate(9)"/></g></g><g transform="translate(159.73 306.108) rotate(-138)"><g class="i" transform="matrix(-0.74, 0.67, -0.67, -0.74, 187.41, 98.98)"><path class="a" d="M11.245,13.358,86,0,80.032,45.15,0,57Z" transform="translate(67.11 72.73) rotate(69)"/></g><g class="h" transform="matrix(-0.74, 0.67, -0.67, -0.74, 187.41, 98.98)"><path class="a" d="M10.787,0,24.662,26.223,13.547,69.876,0,43.289Z" transform="translate(74.48 55.6) rotate(69)"/></g><g class="g" transform="matrix(-0.74, 0.67, -0.67, -0.74, 187.41, 98.98)"><path class="b" d="M0,11.8,80.06,0,93.68,26.73,13.648,38.58Z" transform="translate(45.02 66.59) rotate(69)"/></g><g class="f" transform="matrix(-0.74, 0.67, -0.67, -0.74, 187.41, 98.98)"><path class="a" d="M0,14.039,75.053,0l13.62,26.73-75.184,14.6Z" transform="translate(91.27 60.64) rotate(69)"/></g><g class="e" transform="matrix(-0.74, 0.67, -0.67, -0.74, 187.41, 98.98)"><path class="b" d="M6.051,0,19.587,26.567,13.62,71.717,0,44.987Z" transform="translate(115.71 125.21) rotate(69)"/></g></g><g class="d" transform="matrix(1, 0, 0, 1, 86.69, 107.15)"><path class="b" d="M11.245,13.358,86,0,80.032,45.15,0,57Z" transform="matrix(0.88, 0.47, -0.47, 0.88, 131.73, 51)"/></g><g class="c" transform="matrix(1, 0, 0, 1, 86.69, 107.15)"><path class="b" d="M11.245,43.642,86,57,80.032,11.85,0,0Z" transform="matrix(-0.88, 0.47, -0.47, -0.88, 149.66, 56.33)"/></g></g></svg>